<svg width="80" height="80" viewBox="0 0 80 80" fill="none" xmlns="http://www.w3.org/2000/svg">
<path d="M49.6166 59.9999C47.6678 59.9999 46.0055 59.3111 44.63 57.9333C43.2544 56.5555 42.5655 54.8944 42.5633 52.9499C42.5611 51.0055 43.25 49.3422 44.63 47.9599C46.01 46.5777 47.6722 45.8899 49.6166 45.8966C51.5611 45.9033 53.2233 46.5922 54.6033 47.9633C55.9833 49.3344 56.6711 50.9966 56.6666 52.9499C56.6622 54.9033 55.9733 56.5655 54.6 57.9366C53.2266 59.3077 51.5655 59.9955 49.6166 59.9999ZM18.7166 69.9999C17.1833 69.9999 15.9033 69.4866 14.8766 68.4599C13.85 67.4333 13.3355 66.1522 13.3333 64.6166V22.0499C13.3333 20.5166 13.8478 19.2366 14.8766 18.2099C15.9055 17.1833 17.1866 16.6688 18.72 16.6666H24.6166V9.23328H28.2066V16.6666H52.0533V9.23328H55.3866V16.6666H61.2833C62.8166 16.6666 64.0978 17.1811 65.1266 18.2099C66.1555 19.2388 66.6689 20.5199 66.6666 22.0533V64.6166C66.6666 66.1499 66.1533 67.4311 65.1266 68.4599C64.1 69.4888 62.8178 70.0022 61.28 69.9999H18.7166ZM18.7166 66.6666H61.2833C61.7944 66.6666 62.2644 66.4533 62.6933 66.0266C63.1222 65.5999 63.3355 65.1288 63.3333 64.6133V35.3866H16.6666V64.6166C16.6666 65.1277 16.88 65.5977 17.3066 66.0266C17.7333 66.4555 18.2033 66.6688 18.7166 66.6666Z" fill="#9D9D9D"/>
</svg>
