<svg width="25" height="25" viewBox="0 0 25 25" fill="none" xmlns="http://www.w3.org/2000/svg">
<rect x="0.210938" y="0.140625" width="24" height="24" rx="3" fill="#EEF5FF"/>
<path d="M14.5553 17.5469C14.2763 18.9143 13.0643 19.9469 11.6159 19.9469C10.1675 19.9469 8.95487 18.9143 8.67647 17.5469H14.5553ZM16.9697 10.9397C16.9199 10.9415 16.8713 10.9469 16.8209 10.9469C14.9411 10.9469 13.4123 9.46667 13.4123 7.64687C13.4123 7.10447 13.5509 6.59327 13.7915 6.14147C13.0589 5.76047 12.2261 5.54688 11.3519 5.54688C8.93447 5.54688 6.84167 7.17227 6.31727 9.45647L5.13047 13.1711C4.62647 14.7479 5.84447 16.3469 7.54967 16.3469H15.3815C17.1371 16.3469 18.3599 14.6597 17.7623 13.0619L16.9697 10.9397Z" fill="#00AEBD"/>
<circle cx="16.4156" cy="7.34531" r="2.4" fill="#FD003A"/>
</svg>
