<svg width="17" height="19" viewBox="0 0 17 19" fill="none" xmlns="http://www.w3.org/2000/svg">
<path d="M11.51 16C10.9253 16 10.4267 15.7934 10.014 15.38C9.60133 14.9667 9.39467 14.4684 9.394 13.885C9.39333 13.3017 9.6 12.8027 10.014 12.388C10.428 11.9734 10.9267 11.767 11.51 11.769C12.0933 11.771 12.592 11.9777 13.006 12.389C13.42 12.8004 13.6263 13.299 13.625 13.885C13.6237 14.471 13.417 14.9697 13.005 15.381C12.593 15.7924 12.0947 15.9987 11.51 16ZM2.24 19C1.78 19 1.396 18.846 1.088 18.538C0.78 18.23 0.625667 17.8457 0.625 17.385V4.61502C0.625 4.15502 0.779333 3.77102 1.088 3.46302C1.39667 3.15502 1.781 3.00069 2.241 3.00002H4.01V0.77002H5.087V3.00002H12.241V0.77002H13.241V3.00002H15.01C15.47 3.00002 15.8543 3.15435 16.163 3.46302C16.4717 3.77169 16.6257 4.15602 16.625 4.61602V17.385C16.625 17.845 16.471 18.2294 16.163 18.538C15.855 18.8467 15.4703 19.0007 15.009 19H2.24ZM2.24 18H15.01C15.1633 18 15.3043 17.936 15.433 17.808C15.5617 17.68 15.6257 17.5387 15.625 17.384V8.61602H1.625V17.385C1.625 17.5384 1.689 17.6794 1.817 17.808C1.945 17.9367 2.086 18.0007 2.24 18Z" fill="#18283D"/>
</svg>
